<?xml version="1.0" encoding="utf-8"?>
<!-- Generator: Adobe Illustrator 25.2.1, SVG Export Plug-In . SVG Version: 6.00 Build 0)  -->
<svg version="1.1" id="Layer_1" xmlns="http://www.w3.org/2000/svg" xmlns:xlink="http://www.w3.org/1999/xlink" x="0px" y="0px"
	 viewBox="0 0 320 160" style="enable-background:new 0 0 320 160;" xml:space="preserve">
<style type="text/css">
	.st0{fill:#FFFFFF;stroke:#D2D5DA;stroke-width:0.75;stroke-miterlimit:10;}
	.st1{fill:#D2D5DA;}
</style>
<rect x="16" y="16" class="st0" width="92" height="61"/>
<rect x="114" y="16" class="st0" width="92" height="61"/>
<rect x="212" y="16" class="st0" width="92" height="61"/>
<rect x="16" y="83" class="st0" width="92" height="61"/>
<rect x="114" y="83" class="st0" width="92" height="61"/>
<rect x="212" y="83" class="st0" width="92" height="61"/>
<rect x="22" y="22" class="st1" width="80" height="49"/>
<rect x="120" y="22" class="st1" width="38" height="49"/>
<rect x="162" y="22" class="st1" width="38" height="49"/>
<rect x="218" y="22" class="st1" width="24" height="49"/>
<rect x="246" y="22" class="st1" width="24" height="49"/>
<rect x="274" y="22" class="st1" width="24" height="49"/>
<g>
	<rect x="64" y="89" class="st1" width="38" height="49"/>
	<rect x="22" y="89" class="st1" width="17" height="49"/>
	<rect x="43" y="89" class="st1" width="17" height="49"/>
</g>
<g>
	<rect x="120" y="89" class="st1" width="38" height="49"/>
	<rect x="183" y="89" class="st1" width="17" height="49"/>
	<rect x="162" y="89" class="st1" width="17" height="49"/>
</g>
<rect x="239" y="89" class="st1" width="38" height="49"/>
<rect x="281" y="89" class="st1" width="17" height="49"/>
<rect x="218" y="89" class="st1" width="17" height="49"/>
</svg>
